<svg xmlns="http://www.w3.org/2000/svg" viewBox="0 0 520 120" role="img" aria-labelledby="t d"><title id="t">Synergistica Staffing Solutions</title><desc id="d">Intertwined S people and progress mark</desc><defs><linearGradient id="g" x1="0" y1="0" x2="1" y2="1"><stop stop-color="#c49a5a"/><stop offset="1" stop-color="#8c6736"/></linearGradient></defs><g transform="translate(8 8)"><path d="M72 8C39 6 17 25 18 48c1 20 18 28 39 35 16 5 23 9 22 17-1 7-9 11-21 11-17 0-31-8-42-20 4 25 22 39 46 39 29 0 48-15 49-36 1-22-17-31-41-39-14-5-20-9-19-15 1-7 9-11 20-11 14 0 27 6 37 16C104 22 91 10 72 8Z" fill="#12382f" transform="scale(.8)"/><path d="M70 14c18 6 30 19 36 36-11-9-21-14-31-16 7 7 12 15 14 24-5-7-13-13-23-17-8-3-12-7-12-12 0-7 6-12 16-15Z" fill="url(#g)" transform="scale(.8)"/><circle cx="78" cy="10" r="7" fill="url(#g)" transform="scale(.8)"/></g><g transform="translate(112 27)"><text x="0" y="29" font-family="Georgia,Times New Roman,serif" font-size="36" letter-spacing="2" fill="#12382f">SYNERGISTICA</text><text x="2" y="55" font-family="Arial,sans-serif" font-size="12" letter-spacing="6" fill="#9a7440">STAFFING SOLUTIONS</text><line x1="2" y1="67" x2="340" y2="67" stroke="#c49a5a" stroke-width="1"/><text x="2" y="86" font-family="Arial,sans-serif" font-size="9" letter-spacing="3" fill="#4b4a45">PEOPLE · POTENTIAL · PROGRESS</text></g></svg>